<svg width="1280" height="472" viewBox="0 0 1280 472" fill="none" xmlns="http://www.w3.org/2000/svg">
<g opacity="0.8">
<circle cx="51" cy="12" r="12" fill="#B1B1B1" fill-opacity="0.1"/>
<circle cx="139" cy="12" r="12" fill="#B1B1B1" fill-opacity="0.1"/>
<circle cx="227" cy="12" r="12" fill="#B1B1B1" fill-opacity="0.1"/>
<circle cx="315" cy="12" r="12" fill="#B1B1B1" fill-opacity="0.1"/>
<circle cx="403" cy="12" r="12" fill="#B1B1B1" fill-opacity="0.1"/>
<circle cx="491" cy="12" r="12" fill="#B1B1B1" fill-opacity="0.1"/>
<circle cx="579" cy="12" r="12" fill="#B1B1B1" fill-opacity="0.1"/>
<circle cx="667" cy="12" r="12" fill="#B1B1B1" fill-opacity="0.1"/>
<circle cx="755" cy="12" r="12" fill="#B1B1B1" fill-opacity="0.1"/>
<circle cx="843" cy="12" r="12" fill="#B1B1B1" fill-opacity="0.1"/>
<circle cx="931" cy="12" r="12" fill="#B1B1B1" fill-opacity="0.1"/>
<circle cx="1019" cy="12" r="12" fill="#B1B1B1" fill-opacity="0.1"/>
<circle cx="1107" cy="12" r="12" fill="#B1B1B1" fill-opacity="0.1"/>
<circle cx="1195" cy="12" r="12" fill="#B1B1B1" fill-opacity="0.1"/>
<circle cx="1283" cy="12" r="12" fill="#B1B1B1" fill-opacity="0.1"/>
<circle cx="51" cy="76" r="12" fill="#B1B1B1" fill-opacity="0.1"/>
<circle cx="139" cy="76" r="12" fill="#B1B1B1" fill-opacity="0.1"/>
<circle cx="227" cy="76" r="12" fill="#B1B1B1" fill-opacity="0.1"/>
<circle cx="315" cy="76" r="12" fill="#B1B1B1" fill-opacity="0.1"/>
<circle cx="403" cy="76" r="12" fill="#B1B1B1" fill-opacity="0.1"/>
<circle cx="491" cy="76" r="12" fill="#B1B1B1" fill-opacity="0.1"/>
<circle cx="579" cy="76" r="12" fill="#B1B1B1" fill-opacity="0.1"/>
<circle cx="667" cy="76" r="12" fill="#B1B1B1" fill-opacity="0.1"/>
<circle cx="755" cy="76" r="12" fill="#B1B1B1" fill-opacity="0.1"/>
<circle cx="843" cy="76" r="12" fill="#B1B1B1" fill-opacity="0.1"/>
<circle cx="931" cy="76" r="12" fill="#B1B1B1" fill-opacity="0.1"/>
<circle cx="1019" cy="76" r="12" fill="#B1B1B1" fill-opacity="0.1"/>
<circle cx="1107" cy="76" r="12" fill="#B1B1B1" fill-opacity="0.1"/>
<circle cx="1195" cy="76" r="12" fill="#B1B1B1" fill-opacity="0.1"/>
<circle cx="1283" cy="76" r="12" fill="#B1B1B1" fill-opacity="0.1"/>
<circle cx="51" cy="140" r="12" fill="#B1B1B1" fill-opacity="0.1"/>
<circle cx="139" cy="140" r="12" fill="#B1B1B1" fill-opacity="0.1"/>
<circle cx="227" cy="140" r="12" fill="#B1B1B1" fill-opacity="0.1"/>
<circle cx="315" cy="140" r="12" fill="#B1B1B1" fill-opacity="0.1"/>
<circle cx="403" cy="140" r="12" fill="#B1B1B1" fill-opacity="0.1"/>
<circle cx="491" cy="140" r="12" fill="#B1B1B1" fill-opacity="0.1"/>
<circle cx="579" cy="140" r="12" fill="#B1B1B1" fill-opacity="0.1"/>
<circle cx="667" cy="140" r="12" fill="#B1B1B1" fill-opacity="0.1"/>
<circle cx="755" cy="140" r="12" fill="#B1B1B1" fill-opacity="0.1"/>
<circle cx="843" cy="140" r="12" fill="#B1B1B1" fill-opacity="0.1"/>
<circle cx="931" cy="140" r="12" fill="#B1B1B1" fill-opacity="0.1"/>
<circle cx="1019" cy="140" r="12" fill="#B1B1B1" fill-opacity="0.1"/>
<circle cx="1107" cy="140" r="12" fill="#B1B1B1" fill-opacity="0.1"/>
<circle cx="1195" cy="140" r="12" fill="#B1B1B1" fill-opacity="0.1"/>
<circle cx="1283" cy="140" r="12" fill="#B1B1B1" fill-opacity="0.1"/>
<circle cx="51" cy="204" r="12" fill="#B1B1B1" fill-opacity="0.1"/>
<circle cx="139" cy="204" r="12" fill="#B1B1B1" fill-opacity="0.1"/>
<circle cx="227" cy="204" r="12" fill="#B1B1B1" fill-opacity="0.1"/>
<circle cx="315" cy="204" r="12" fill="#B1B1B1" fill-opacity="0.1"/>
<circle cx="403" cy="204" r="12" fill="#B1B1B1" fill-opacity="0.1"/>
<circle cx="491" cy="204" r="12" fill="#B1B1B1" fill-opacity="0.1"/>
<circle cx="579" cy="204" r="12" fill="#B1B1B1" fill-opacity="0.1"/>
<circle cx="667" cy="204" r="12" fill="#B1B1B1" fill-opacity="0.1"/>
<circle cx="755" cy="204" r="12" fill="#B1B1B1" fill-opacity="0.1"/>
<circle cx="843" cy="204" r="12" fill="#B1B1B1" fill-opacity="0.1"/>
<circle cx="931" cy="204" r="12" fill="#B1B1B1" fill-opacity="0.1"/>
<circle cx="1019" cy="204" r="12" fill="#B1B1B1" fill-opacity="0.1"/>
<circle cx="1107" cy="204" r="12" fill="#B1B1B1" fill-opacity="0.1"/>
<circle cx="1195" cy="204" r="12" fill="#B1B1B1" fill-opacity="0.1"/>
<circle cx="1283" cy="204" r="12" fill="#B1B1B1" fill-opacity="0.1"/>
<circle cx="51" cy="268" r="12" fill="#B1B1B1" fill-opacity="0.1"/>
<circle cx="139" cy="268" r="12" fill="#B1B1B1" fill-opacity="0.1"/>
<circle cx="227" cy="268" r="12" fill="#B1B1B1" fill-opacity="0.1"/>
<circle cx="315" cy="268" r="12" fill="#B1B1B1" fill-opacity="0.1"/>
<circle cx="403" cy="268" r="12" fill="#B1B1B1" fill-opacity="0.1"/>
<circle cx="491" cy="268" r="12" fill="#B1B1B1" fill-opacity="0.1"/>
<circle cx="579" cy="268" r="12" fill="#B1B1B1" fill-opacity="0.1"/>
<circle cx="667" cy="268" r="12" fill="#B1B1B1" fill-opacity="0.1"/>
<circle cx="755" cy="268" r="12" fill="#B1B1B1" fill-opacity="0.1"/>
<circle cx="843" cy="268" r="12" fill="#B1B1B1" fill-opacity="0.1"/>
<circle cx="931" cy="268" r="12" fill="#B1B1B1" fill-opacity="0.1"/>
<circle cx="1019" cy="268" r="12" fill="#B1B1B1" fill-opacity="0.1"/>
<circle cx="1107" cy="268" r="12" fill="#B1B1B1" fill-opacity="0.1"/>
<circle cx="1195" cy="268" r="12" fill="#B1B1B1" fill-opacity="0.1"/>
<circle cx="1283" cy="268" r="12" fill="#B1B1B1" fill-opacity="0.1"/>
<circle cx="51" cy="332" r="12" fill="#B1B1B1" fill-opacity="0.1"/>
<circle cx="139" cy="332" r="12" fill="#B1B1B1" fill-opacity="0.1"/>
<circle cx="227" cy="332" r="12" fill="#B1B1B1" fill-opacity="0.1"/>
<circle cx="315" cy="332" r="12" fill="#B1B1B1" fill-opacity="0.1"/>
<circle cx="403" cy="332" r="12" fill="#B1B1B1" fill-opacity="0.1"/>
<circle cx="491" cy="332" r="12" fill="#B1B1B1" fill-opacity="0.1"/>
<circle cx="579" cy="332" r="12" fill="#B1B1B1" fill-opacity="0.1"/>
<circle cx="667" cy="332" r="12" fill="#B1B1B1" fill-opacity="0.1"/>
<circle cx="755" cy="332" r="12" fill="#B1B1B1" fill-opacity="0.1"/>
<circle cx="843" cy="332" r="12" fill="#B1B1B1" fill-opacity="0.1"/>
<circle cx="931" cy="332" r="12" fill="#B1B1B1" fill-opacity="0.1"/>
<circle cx="1019" cy="332" r="12" fill="#B1B1B1" fill-opacity="0.1"/>
<circle cx="1107" cy="332" r="12" fill="#B1B1B1" fill-opacity="0.1"/>
<circle cx="1195" cy="332" r="12" fill="#B1B1B1" fill-opacity="0.1"/>
<circle cx="1283" cy="332" r="12" fill="#B1B1B1" fill-opacity="0.1"/>
<circle cx="51" cy="396" r="12" fill="#B1B1B1" fill-opacity="0.1"/>
<circle cx="139" cy="396" r="12" fill="#B1B1B1" fill-opacity="0.1"/>
<circle cx="227" cy="396" r="12" fill="#B1B1B1" fill-opacity="0.1"/>
<circle cx="315" cy="396" r="12" fill="#B1B1B1" fill-opacity="0.1"/>
<circle cx="403" cy="396" r="12" fill="#B1B1B1" fill-opacity="0.1"/>
<circle cx="491" cy="396" r="12" fill="#B1B1B1" fill-opacity="0.1"/>
<circle cx="579" cy="396" r="12" fill="#B1B1B1" fill-opacity="0.1"/>
<circle cx="667" cy="396" r="12" fill="#B1B1B1" fill-opacity="0.1"/>
<circle cx="755" cy="396" r="12" fill="#B1B1B1" fill-opacity="0.1"/>
<circle cx="843" cy="396" r="12" fill="#B1B1B1" fill-opacity="0.1"/>
<circle cx="931" cy="396" r="12" fill="#B1B1B1" fill-opacity="0.1"/>
<circle cx="1019" cy="396" r="12" fill="#B1B1B1" fill-opacity="0.1"/>
<circle cx="1107" cy="396" r="12" fill="#B1B1B1" fill-opacity="0.1"/>
<circle cx="1195" cy="396" r="12" fill="#B1B1B1" fill-opacity="0.1"/>
<circle cx="1283" cy="396" r="12" fill="#B1B1B1" fill-opacity="0.1"/>
<circle cx="51" cy="460" r="12" fill="#B1B1B1" fill-opacity="0.1"/>
<circle cx="139" cy="460" r="12" fill="#B1B1B1" fill-opacity="0.1"/>
<circle cx="227" cy="460" r="12" fill="#B1B1B1" fill-opacity="0.1"/>
<circle cx="315" cy="460" r="12" fill="#B1B1B1" fill-opacity="0.1"/>
<circle cx="403" cy="460" r="12" fill="#B1B1B1" fill-opacity="0.1"/>
<circle cx="491" cy="460" r="12" fill="#B1B1B1" fill-opacity="0.1"/>
<circle cx="579" cy="460" r="12" fill="#B1B1B1" fill-opacity="0.1"/>
<circle cx="667" cy="460" r="12" fill="#B1B1B1" fill-opacity="0.1"/>
<circle cx="755" cy="460" r="12" fill="#B1B1B1" fill-opacity="0.1"/>
<circle cx="843" cy="460" r="12" fill="#B1B1B1" fill-opacity="0.1"/>
<circle cx="931" cy="460" r="12" fill="#B1B1B1" fill-opacity="0.1"/>
<circle cx="1019" cy="460" r="12" fill="#B1B1B1" fill-opacity="0.1"/>
<circle cx="1107" cy="460" r="12" fill="#B1B1B1" fill-opacity="0.1"/>
<circle cx="1195" cy="460" r="12" fill="#B1B1B1" fill-opacity="0.1"/>
<circle cx="1283" cy="460" r="12" fill="#B1B1B1" fill-opacity="0.1"/>
</g>
</svg>
